<mxfile host="app.diagrams.net" modified="2023-05-26T18:34:23.993Z" agent="Mozilla/5.0 (X11; Ubuntu; Linux x86_64; rv:109.0) Gecko/20100101 Firefox/113.0" version="21.3.4" etag="Xby71Ln9vjIoIEA0Hv5O" type="github">
  <diagram name="Strona-1" id="1eGeL-QrbZwQ9tzvsQIs">
    <mxGraphModel>
      <root>
        <mxCell id="0" />
        <mxCell id="1" parent="0" />
      </root>
    </mxGraphModel>
  </diagram>
</mxfile>
